<svg xmlns="http://www.w3.org/2000/svg" xmlns:xlink="http://www.w3.org/1999/xlink" id="main-svg" class="nts" width="1000" height="1000" viewBox="0 0 100 100">
      <defs>
        <!-- a transparent colored glow with no offset filterUnits="userSpaceOnUse" -->
        <filter id="glow" x="-50%" y="-50%" width="200%" height="200%" color-interpolation-filters="sRGB">
          <feMorphology in="SourceGraphic" result="larger" id="dilate" operator="dilate" radius="1"></feMorphology>
          <feGaussianBlur in="larger" result="coloredBlur" id="blur" stdDeviation="1"></feGaussianBlur>
          <feColorMatrix in="coloredBlur" result="res" id="fade" type="matrix" values="1 0 0 0 0 0 1 0 0 0 0 0 1 0 0 0 0 0 0.24954668731964502 0"></feColorMatrix>
          <feMerge>
            <feMergeNode in="res"></feMergeNode>
            <feMergeNode in="SourceGraphic"></feMergeNode>
          </feMerge>
        </filter>
      </defs>
    <g id="sw1" transform="translate(9.999999999999988, 0.9181229895000271) rotate(0, 3.6363636363636487, 3.6363636363620637)"><path fill="rgb(61, 89, 65)" d="M0 1.4545454545448255  Q0 0 1.4545454545448255 0 h4.363636363637646 Q7.272727272727297 0 7.272727272727297 1.4545454545448255 v4.363636363634477 v1.4545454545448255 h-5.818181818182472 h-1.4545454545448255z" filter=""></path><circle cx="3.6363636363636367" cy="3.6363636363636367" r="0.8333333333333334" stroke="#dfdfdf" stroke-width="0.20833333333333334" fill="none"></circle><line class="x line0" stroke="#FFF" stroke-width="0.8333333333333334" x1="1.4545454545454595" y1="1.4545454545454595" x2="5.818181818181838" y2="5.818181818178668" style="display: none;"></line><line class="x line1" stroke="#FFF" stroke-width="0.8333333333333334" x1="5.818181818181838" y1="1.4545454545454595" x2="1.4545454545454595" y2="5.818181818178668" style="display: none;"></line><line class="e0 edge" stroke="#FFF" stroke-width="0.8333333333333334" x1="0" y1="0.4166666666666667" x2="7.272727272727297" y2="0.4166666666666667" style="display: none;"></line><line class="e1 edge" stroke="#FFF" stroke-width="0.8333333333333334" x1="6.85606060606063" y1="0" x2="6.85606060606063" y2="7.2727272727241274" style="display: none;"></line><line class="e2 edge" stroke="#FFF" stroke-width="0.8333333333333334" x1="0" y1="6.8560606060574605" x2="7.272727272727297" y2="6.8560606060574605" style="display: none;"></line><line class="e3 edge" stroke="#FFF" stroke-width="0.8333333333333334" x1="0.4166666666666667" y1="0" x2="0.4166666666666667" y2="7.2727272727241274" style="display: none;"></line></g><g id="sw2" transform="translate(9.999999999999968, 69.09994117131797) rotate(0, 3.636363636363651, 3.636363636362262)"><path fill="rgb(202, 86, 44)" d="M0 0 h5.818181818182397 h1.4545454545449048 v5.818181818179619 v1.4545454545449048 h-5.818181818182397 h-1.4545454545449048z" filter="url(#glow)"></path><circle cx="3.6363636363636367" cy="3.6363636363636367" r="0.8333333333333334" stroke="#dfdfdf" stroke-width="0.20833333333333334" fill="none"></circle><line class="x line0" stroke="#000" stroke-width="0.8333333333333334" x1="1.4545454545454604" y1="1.4545454545454604" x2="5.818181818181841" y2="5.818181818179063" style="display: none;"></line><line class="x line1" stroke="#000" stroke-width="0.8333333333333334" x1="5.818181818181841" y1="1.4545454545454604" x2="1.4545454545454604" y2="5.818181818179063" style="display: none;"></line><line class="e0 edge" stroke="#000" stroke-width="0.8333333333333334" x1="0" y1="0.4166666666666667" x2="7.272727272727302" y2="0.4166666666666667" style="display: none;"></line><line class="e1 edge" stroke="#000" stroke-width="0.8333333333333334" x1="6.856060606060635" y1="0" x2="6.856060606060635" y2="7.272727272724524" style="display: none;"></line><line class="e2 edge" stroke="#000" stroke-width="0.8333333333333334" x1="0" y1="6.856060606057857" x2="7.272727272727302" y2="6.856060606057857" style="display: none;"></line><line class="e3 edge" stroke="#000" stroke-width="0.8333333333333334" x1="0.4166666666666667" y1="0" x2="0.4166666666666667" y2="7.272727272724524" style="display: none;"></line></g><g id="sw18" transform="translate(10.000000000000075, 28.190850262223844) rotate(0, 3.636363636363564, 3.636363636365524)"><path fill="rgb(206, 206, 162)" d="M0 0 h5.818181818181702 h1.4545454545454257 v5.818181818185622 v1.4545454545454257 h-5.818181818181702 h-1.4545454545454257z" filter=""></path><circle cx="3.6363636363636367" cy="3.6363636363636367" r="0.8333333333333334" stroke="#dfdfdf" stroke-width="0.20833333333333334" fill="none"></circle><line class="x line0" stroke="#000" stroke-width="0.8333333333333334" x1="1.4545454545454257" y1="1.4545454545454257" x2="5.818181818181702" y2="5.818181818185622" style="display: none;"></line><line class="x line1" stroke="#000" stroke-width="0.8333333333333334" x1="5.818181818181702" y1="1.4545454545454257" x2="1.4545454545454257" y2="5.818181818185622" style="display: none;"></line><line class="e0 edge" stroke="#000" stroke-width="0.8333333333333334" x1="0" y1="0.4166666666666667" x2="7.272727272727128" y2="0.4166666666666667" style="display: none;"></line><line class="e1 edge" stroke="#000" stroke-width="0.8333333333333334" x1="6.856060606060461" y1="0" x2="6.856060606060461" y2="7.272727272731048" style="display: none;"></line><line class="e2 edge" stroke="#000" stroke-width="0.8333333333333334" x1="0" y1="6.856060606064381" x2="7.272727272727128" y2="6.856060606064381" style="display: none;"></line><line class="e3 edge" stroke="#000" stroke-width="0.8333333333333334" x1="0.4166666666666667" y1="0" x2="0.4166666666666667" y2="7.272727272731048" style="display: none;"></line></g><g id="sw19" transform="translate(9.999999999999973, 41.827213898586876) rotate(0, 3.636363636363645, 3.636363636366122)"><path fill="rgb(241, 207, 158)" d="M0 0 h5.8181818181818326 h1.4545454545454581 v5.818181818186785 v1.4545454545454581 h-5.8181818181818326 h-1.4545454545454581z" filter=""></path><circle cx="3.6363636363636367" cy="3.6363636363636367" r="0.8333333333333334" stroke="#dfdfdf" stroke-width="0.20833333333333334" fill="none"></circle><line class="x line0" stroke="#000" stroke-width="0.8333333333333334" x1="1.4545454545454581" y1="1.4545454545454581" x2="5.8181818181818326" y2="5.818181818186785" style="display: none;"></line><line class="x line1" stroke="#000" stroke-width="0.8333333333333334" x1="5.8181818181818326" y1="1.4545454545454581" x2="1.4545454545454581" y2="5.818181818186785" style="display: none;"></line><line class="e0 edge" stroke="#000" stroke-width="0.8333333333333334" x1="0" y1="0.4166666666666667" x2="7.27272727272729" y2="0.4166666666666667" style="display: none;"></line><line class="e1 edge" stroke="#000" stroke-width="0.8333333333333334" x1="6.856060606060623" y1="0" x2="6.856060606060623" y2="7.272727272732244" style="display: none;"></line><line class="e2 edge" stroke="#000" stroke-width="0.8333333333333334" x1="0" y1="6.856060606065577" x2="7.27272727272729" y2="6.856060606065577" style="display: none;"></line><line class="e3 edge" stroke="#000" stroke-width="0.8333333333333334" x1="0.4166666666666667" y1="0" x2="0.4166666666666667" y2="7.272727272732244" style="display: none;"></line></g><g id="sw21" transform="translate(10.000000000000057, 23.190850262223925) rotate(0, 3.636363636363581, 2.499999999999961)"><path fill="rgb(177, 183, 143)" d="M0 0 h6.2727272727271774 h0.9999999999999845 v3.9999999999999374 v0.9999999999999845 h-6.2727272727271774 h-0.9999999999999845z" filter=""></path><line class="e0 edge" stroke="#000" stroke-width="0.8333333333333334" x1="0" y1="0.4166666666666667" x2="7.272727272727162" y2="0.4166666666666667" style="display: none;"></line><line class="e1 edge" stroke="#000" stroke-width="0.8333333333333334" x1="6.856060606060495" y1="0" x2="6.856060606060495" y2="4.999999999999922" style="display: none;"></line><line class="e2 edge" stroke="#000" stroke-width="0.8333333333333334" x1="0" y1="4.583333333333255" x2="7.272727272727162" y2="4.583333333333255" style="display: none;"></line><line class="e3 edge" stroke="#000" stroke-width="0.8333333333333334" x1="0.4166666666666667" y1="0" x2="0.4166666666666667" y2="4.999999999999922" style="display: none;"></line></g><g id="sw22" transform="translate(10.000000000000039, 18.190850262223996) rotate(0, 3.636363636363598, 2.499999999999961)"><path fill="rgb(148, 159, 123)" d="M0 0 h6.272727272727211 h0.9999999999999845 v3.9999999999999374 v0.9999999999999845 h-6.272727272727211 h-0.9999999999999845z" filter=""></path><line class="e0 edge" stroke="#000" stroke-width="0.8333333333333334" x1="0" y1="0.4166666666666667" x2="7.272727272727196" y2="0.4166666666666667" style="display: none;"></line><line class="e1 edge" stroke="#000" stroke-width="0.8333333333333334" x1="6.856060606060529" y1="0" x2="6.856060606060529" y2="4.999999999999922" style="display: none;"></line><line class="e2 edge" stroke="#000" stroke-width="0.8333333333333334" x1="0" y1="4.583333333333255" x2="7.272727272727196" y2="4.583333333333255" style="display: none;"></line><line class="e3 edge" stroke="#000" stroke-width="0.8333333333333334" x1="0.4166666666666667" y1="0" x2="0.4166666666666667" y2="4.999999999999922" style="display: none;"></line></g><g id="sw52" transform="translate(10.00000000000002, 13.190850262224076) rotate(0, 3.6363636363636154, 2.499999999999961)"><path fill="rgb(119, 136, 104)" d="M0 0 h6.272727272727247 h0.9999999999999845 v3.9999999999999374 v0.9999999999999845 h-6.272727272727247 h-0.9999999999999845z" filter=""></path><line class="e0 edge" stroke="#000" stroke-width="0.8333333333333334" x1="0" y1="0.4166666666666667" x2="7.272727272727231" y2="0.4166666666666667" style="display: none;"></line><line class="e1 edge" stroke="#000" stroke-width="0.8333333333333334" x1="6.856060606060564" y1="0" x2="6.856060606060564" y2="4.999999999999922" style="display: none;"></line><line class="e2 edge" stroke="#000" stroke-width="0.8333333333333334" x1="0" y1="4.583333333333255" x2="7.272727272727231" y2="4.583333333333255" style="display: none;"></line><line class="e3 edge" stroke="#000" stroke-width="0.8333333333333334" x1="0.4166666666666667" y1="0" x2="0.4166666666666667" y2="4.999999999999922" style="display: none;"></line></g><g id="sw53" transform="translate(10.000000000000004, 8.190850262224156) rotate(0, 3.6363636363636322, 2.499999999999961)"><path fill="rgb(90, 112, 84)" d="M0 0 h6.2727272727272805 h0.9999999999999845 v3.9999999999999374 v0.9999999999999845 h-6.2727272727272805 h-0.9999999999999845z" filter=""></path><line class="e0 edge" stroke="#000" stroke-width="0.8333333333333334" x1="0" y1="0.4166666666666667" x2="7.2727272727272645" y2="0.4166666666666667" style="display: none;"></line><line class="e1 edge" stroke="#000" stroke-width="0.8333333333333334" x1="6.8560606060605975" y1="0" x2="6.8560606060605975" y2="4.999999999999922" style="display: none;"></line><line class="e2 edge" stroke="#000" stroke-width="0.8333333333333334" x1="0" y1="4.583333333333255" x2="7.2727272727272645" y2="4.583333333333255" style="display: none;"></line><line class="e3 edge" stroke="#000" stroke-width="0.8333333333333334" x1="0.4166666666666667" y1="0" x2="0.4166666666666667" y2="4.999999999999922" style="display: none;"></line></g><g id="sw67" transform="translate(10.000000000000005, 38.64539571677088) rotate(0, 3.636363636363618, 1.5909090909079973)"><path fill="rgb(229, 207, 159)" d="M0 0 h6.636363636364037 h0.6363636363631989 v2.5454545454527957 v0.6363636363631989 h-6.636363636364037 h-0.6363636363631989z" filter=""></path><line class="e0 edge" stroke="#000" stroke-width="0.8333333333333334" x1="0" y1="0.4166666666666667" x2="7.272727272727236" y2="0.4166666666666667" style="display: none;"></line><line class="e1 edge" stroke="#000" stroke-width="0.8333333333333334" x1="6.856060606060569" y1="0" x2="6.856060606060569" y2="3.1818181818159945" style="display: none;"></line><line class="e2 edge" stroke="#000" stroke-width="0.8333333333333334" x1="0" y1="2.765151515149328" x2="7.272727272727236" y2="2.765151515149328" style="display: none;"></line><line class="e3 edge" stroke="#000" stroke-width="0.8333333333333334" x1="0.4166666666666667" y1="0" x2="0.4166666666666667" y2="3.1818181818159945" style="display: none;"></line></g><g id="sw68" transform="translate(10.00000000000004, 35.463577534954894) rotate(0, 3.636363636363592, 1.5909090909079973)"><path fill="rgb(218, 206, 161)" d="M0 0 h6.636363636363985 h0.6363636363631989 v2.5454545454527957 v0.6363636363631989 h-6.636363636363985 h-0.6363636363631989z" filter=""></path><line class="e0 edge" stroke="#000" stroke-width="0.8333333333333334" x1="0" y1="0.4166666666666667" x2="7.272727272727184" y2="0.4166666666666667" style="display: none;"></line><line class="e1 edge" stroke="#000" stroke-width="0.8333333333333334" x1="6.856060606060517" y1="0" x2="6.856060606060517" y2="3.1818181818159945" style="display: none;"></line><line class="e2 edge" stroke="#000" stroke-width="0.8333333333333334" x1="0" y1="2.765151515149328" x2="7.272727272727184" y2="2.765151515149328" style="display: none;"></line><line class="e3 edge" stroke="#000" stroke-width="0.8333333333333334" x1="0.4166666666666667" y1="0" x2="0.4166666666666667" y2="3.1818181818159945" style="display: none;"></line></g><g id="sw80" transform="translate(9.999999999999968, 65.09994117131819) rotate(0, 3.63636363636365, 1.9999999999998845)"><path fill="rgb(209, 106, 63)" d="M0 0 h6.472727272727346 h0.7999999999999539 v3.1999999999998154 v0.7999999999999539 h-6.472727272727346 h-0.7999999999999539z" filter=""></path><line class="e0 edge" stroke="#000" stroke-width="0.8333333333333334" x1="0" y1="0.4166666666666667" x2="7.2727272727273" y2="0.4166666666666667" style="display: none;"></line><line class="e1 edge" stroke="#000" stroke-width="0.8333333333333334" x1="6.856060606060633" y1="0" x2="6.856060606060633" y2="3.999999999999769" style="display: none;"></line><line class="e2 edge" stroke="#000" stroke-width="0.8333333333333334" x1="0" y1="3.5833333333331026" x2="7.2727272727273" y2="3.5833333333331026" style="display: none;"></line><line class="e3 edge" stroke="#000" stroke-width="0.8333333333333334" x1="0.4166666666666667" y1="0" x2="0.4166666666666667" y2="3.999999999999769" style="display: none;"></line></g><g id="sw81" transform="translate(9.99999999999997, 61.09994117131844) rotate(0, 3.6363636363636487, 1.9999999999998845)"><path fill="rgb(215, 126, 82)" d="M0 0 h6.472727272727344 h0.7999999999999539 v3.1999999999998154 v0.7999999999999539 h-6.472727272727344 h-0.7999999999999539z" filter=""></path><line class="e0 edge" stroke="#000" stroke-width="0.8333333333333334" x1="0" y1="0.4166666666666667" x2="7.272727272727297" y2="0.4166666666666667" style="display: none;"></line><line class="e1 edge" stroke="#000" stroke-width="0.8333333333333334" x1="6.85606060606063" y1="0" x2="6.85606060606063" y2="3.999999999999769" style="display: none;"></line><line class="e2 edge" stroke="#000" stroke-width="0.8333333333333334" x1="0" y1="3.5833333333331026" x2="7.272727272727297" y2="3.5833333333331026" style="display: none;"></line><line class="e3 edge" stroke="#000" stroke-width="0.8333333333333334" x1="0.4166666666666667" y1="0" x2="0.4166666666666667" y2="3.999999999999769" style="display: none;"></line></g><g id="sw87" transform="translate(9.99999999999997, 57.09994117131867) rotate(0, 3.636363636363648, 1.9999999999998845)"><path fill="rgb(222, 147, 101)" d="M0 0 h6.472727272727342 h0.7999999999999539 v3.1999999999998154 v0.7999999999999539 h-6.472727272727342 h-0.7999999999999539z" filter=""></path><line class="e0 edge" stroke="#000" stroke-width="0.8333333333333334" x1="0" y1="0.4166666666666667" x2="7.272727272727296" y2="0.4166666666666667" style="display: none;"></line><line class="e1 edge" stroke="#000" stroke-width="0.8333333333333334" x1="6.856060606060629" y1="0" x2="6.856060606060629" y2="3.999999999999769" style="display: none;"></line><line class="e2 edge" stroke="#000" stroke-width="0.8333333333333334" x1="0" y1="3.5833333333331026" x2="7.272727272727296" y2="3.5833333333331026" style="display: none;"></line><line class="e3 edge" stroke="#000" stroke-width="0.8333333333333334" x1="0.4166666666666667" y1="0" x2="0.4166666666666667" y2="3.999999999999769" style="display: none;"></line></g><g id="sw88" transform="translate(9.999999999999972, 53.099941171318896) rotate(0, 3.6363636363636473, 1.9999999999998845)"><path fill="rgb(228, 167, 120)" d="M0 0 h6.472727272727341 h0.7999999999999539 v3.1999999999998154 v0.7999999999999539 h-6.472727272727341 h-0.7999999999999539z" filter=""></path><line class="e0 edge" stroke="#000" stroke-width="0.8333333333333334" x1="0" y1="0.4166666666666667" x2="7.272727272727295" y2="0.4166666666666667" style="display: none;"></line><line class="e1 edge" stroke="#000" stroke-width="0.8333333333333334" x1="6.856060606060628" y1="0" x2="6.856060606060628" y2="3.999999999999769" style="display: none;"></line><line class="e2 edge" stroke="#000" stroke-width="0.8333333333333334" x1="0" y1="3.5833333333331026" x2="7.272727272727295" y2="3.5833333333331026" style="display: none;"></line><line class="e3 edge" stroke="#000" stroke-width="0.8333333333333334" x1="0.4166666666666667" y1="0" x2="0.4166666666666667" y2="3.999999999999769" style="display: none;"></line></g><g id="sw89" transform="translate(9.999999999999973, 49.099941171319124) rotate(0, 3.636363636363646, 1.9999999999998845)"><path fill="rgb(235, 187, 139)" d="M0 0 h6.472727272727338 h0.7999999999999539 v3.1999999999998154 v0.7999999999999539 h-6.472727272727338 h-0.7999999999999539z" filter=""></path><line class="e0 edge" stroke="#000" stroke-width="0.8333333333333334" x1="0" y1="0.4166666666666667" x2="7.272727272727292" y2="0.4166666666666667" style="display: none;"></line><line class="e1 edge" stroke="#000" stroke-width="0.8333333333333334" x1="6.856060606060625" y1="0" x2="6.856060606060625" y2="3.999999999999769" style="display: none;"></line><line class="e2 edge" stroke="#000" stroke-width="0.8333333333333334" x1="0" y1="3.5833333333331026" x2="7.272727272727292" y2="3.5833333333331026" style="display: none;"></line><line class="e3 edge" stroke="#000" stroke-width="0.8333333333333334" x1="0.4166666666666667" y1="0" x2="0.4166666666666667" y2="3.999999999999769" style="display: none;"></line></g><g id="sw90" transform="translate(9.999999999999995, 91.82721389858936) rotate(0, 3.636363636363625, 3.6363636363636376)"><path fill="rgb(86, 42, 15)" d="M0 0 h5.818181818181801 h1.4545454545454501 v5.8181818181818254 Q7.27272727272725 7.272727272727275 5.818181818181801 7.272727272727275 h-4.36363636363635 Q0 7.272727272727275 0 5.8181818181818254z" filter=""></path><circle cx="3.6363636363636367" cy="3.6363636363636367" r="0.8333333333333334" stroke="#dfdfdf" stroke-width="0.20833333333333334" fill="none"></circle><line class="x line0" stroke="#000" stroke-width="0.8333333333333334" x1="1.4545454545454501" y1="1.4545454545454501" x2="5.818181818181801" y2="5.8181818181818254" style="display: none;"></line><line class="x line1" stroke="#000" stroke-width="0.8333333333333334" x1="5.818181818181801" y1="1.4545454545454501" x2="1.4545454545454501" y2="5.8181818181818254" style="display: none;"></line><line class="e0 edge" stroke="#000" stroke-width="0.8333333333333334" x1="0" y1="0.4166666666666667" x2="7.27272727272725" y2="0.4166666666666667" style="display: none;"></line><line class="e1 edge" stroke="#000" stroke-width="0.8333333333333334" x1="6.856060606060583" y1="0" x2="6.856060606060583" y2="7.272727272727275" style="display: none;"></line><line class="e2 edge" stroke="#000" stroke-width="0.8333333333333334" x1="0" y1="6.856060606060608" x2="7.27272727272725" y2="6.856060606060608" style="display: none;"></line><line class="e3 edge" stroke="#000" stroke-width="0.8333333333333334" x1="0.4166666666666667" y1="0" x2="0.4166666666666667" y2="7.272727272727275" style="display: none;"></line></g><g id="sw91" transform="translate(9.99999999999999, 87.96357753495265) rotate(0, 3.63636363636363, 1.9318181818183593)"><path fill="rgb(109, 51, 21)" d="M0 0 h6.4999999999999165 h0.7727272727273438 v3.090909090909375 v0.7727272727273438 h-6.4999999999999165 h-0.7727272727273438z" filter=""></path><line class="e0 edge" stroke="#000" stroke-width="0.8333333333333334" x1="0" y1="0.4166666666666667" x2="7.27272727272726" y2="0.4166666666666667" style="display: none;"></line><line class="e1 edge" stroke="#000" stroke-width="0.8333333333333334" x1="6.856060606060593" y1="0" x2="6.856060606060593" y2="3.8636363636367186" style="display: none;"></line><line class="e2 edge" stroke="#000" stroke-width="0.8333333333333334" x1="0" y1="3.446969696970052" x2="7.27272727272726" y2="3.446969696970052" style="display: none;"></line><line class="e3 edge" stroke="#000" stroke-width="0.8333333333333334" x1="0.4166666666666667" y1="0" x2="0.4166666666666667" y2="3.8636363636367186" style="display: none;"></line></g><g id="sw92" transform="translate(9.999999999999984, 84.09994117131593) rotate(0, 3.6363636363636354, 1.9318181818183593)"><path fill="rgb(132, 60, 27)" d="M0 0 h6.499999999999927 h0.7727272727273438 v3.090909090909375 v0.7727272727273438 h-6.499999999999927 h-0.7727272727273438z" filter=""></path><line class="e0 edge" stroke="#000" stroke-width="0.8333333333333334" x1="0" y1="0.4166666666666667" x2="7.272727272727271" y2="0.4166666666666667" style="display: none;"></line><line class="e1 edge" stroke="#000" stroke-width="0.8333333333333334" x1="6.856060606060604" y1="0" x2="6.856060606060604" y2="3.8636363636367186" style="display: none;"></line><line class="e2 edge" stroke="#000" stroke-width="0.8333333333333334" x1="0" y1="3.446969696970052" x2="7.272727272727271" y2="3.446969696970052" style="display: none;"></line><line class="e3 edge" stroke="#000" stroke-width="0.8333333333333334" x1="0.4166666666666667" y1="0" x2="0.4166666666666667" y2="3.8636363636367186" style="display: none;"></line></g><g id="sw93" transform="translate(9.999999999999979, 80.23630480767922) rotate(0, 3.6363636363636402, 1.9318181818183593)"><path fill="rgb(156, 68, 32)" d="M0 0 h6.499999999999937 h0.7727272727273438 v3.090909090909375 v0.7727272727273438 h-6.499999999999937 h-0.7727272727273438z" filter=""></path><line class="e0 edge" stroke="#000" stroke-width="0.8333333333333334" x1="0" y1="0.4166666666666667" x2="7.2727272727272805" y2="0.4166666666666667" style="display: none;"></line><line class="e1 edge" stroke="#000" stroke-width="0.8333333333333334" x1="6.8560606060606135" y1="0" x2="6.8560606060606135" y2="3.8636363636367186" style="display: none;"></line><line class="e2 edge" stroke="#000" stroke-width="0.8333333333333334" x1="0" y1="3.446969696970052" x2="7.2727272727272805" y2="3.446969696970052" style="display: none;"></line><line class="e3 edge" stroke="#000" stroke-width="0.8333333333333334" x1="0.4166666666666667" y1="0" x2="0.4166666666666667" y2="3.8636363636367186" style="display: none;"></line></g><g id="sw94" transform="translate(9.999999999999973, 76.37266844404249) rotate(0, 3.636363636363646, 1.9318181818183593)"><path fill="rgb(179, 77, 38)" d="M0 0 h6.4999999999999485 h0.7727272727273438 v3.090909090909375 v0.7727272727273438 h-6.4999999999999485 h-0.7727272727273438z" filter=""></path><line class="e0 edge" stroke="#000" stroke-width="0.8333333333333334" x1="0" y1="0.4166666666666667" x2="7.272727272727292" y2="0.4166666666666667" style="display: none;"></line><line class="e1 edge" stroke="#000" stroke-width="0.8333333333333334" x1="6.856060606060625" y1="0" x2="6.856060606060625" y2="3.8636363636367186" style="display: none;"></line><line class="e2 edge" stroke="#000" stroke-width="0.8333333333333334" x1="0" y1="3.446969696970052" x2="7.272727272727292" y2="3.446969696970052" style="display: none;"></line><line class="e3 edge" stroke="#000" stroke-width="0.8333333333333334" x1="0.4166666666666667" y1="0" x2="0.4166666666666667" y2="3.8636363636367186" style="display: none;"></line></g></svg>